<svg width="40" height="40" viewBox="0 0 40 40" fill="none" xmlns="http://www.w3.org/2000/svg">
<path d="M13.3333 11.6667V5M26.6667 11.6667V5M11.6667 18.3333H28.3333M8.33333 35H31.6667C32.5507 35 33.3986 34.6488 34.0237 34.0237C34.6488 33.3986 35 32.5507 35 31.6667V11.6667C35 10.7826 34.6488 9.93477 34.0237 9.30964C33.3986 8.68452 32.5507 8.33333 31.6667 8.33333H8.33333C7.44928 8.33333 6.60143 8.68452 5.97631 9.30964C5.35119 9.93477 5 10.7826 5 11.6667V31.6667C5 32.5507 5.35119 33.3986 5.97631 34.0237C6.60143 34.6488 7.44928 35 8.33333 35Z" stroke="#0E74A3" stroke-width="2" stroke-linecap="round" stroke-linejoin="round"/>
</svg>
