<svg width="40" height="40" viewBox="0 0 40 40" fill="none" xmlns="http://www.w3.org/2000/svg">
<path d="M35.9891 22.0406C35.5239 21.6827 34.9825 21.4369 34.4069 21.3223C33.8313 21.2077 33.2371 21.2273 32.6703 21.3797L26.1328 22.8828C26.2849 22.2403 26.2896 21.5717 26.1466 20.9271C26.0035 20.2825 25.7164 19.6787 25.3068 19.1608C24.8972 18.643 24.3756 18.2246 23.7813 17.9369C23.187 17.6493 22.5353 17.4999 21.875 17.5H14.0531C13.3962 17.4984 12.7456 17.6269 12.1386 17.8782C11.5317 18.1295 10.9806 18.4985 10.5172 18.9641L6.98281 22.5H2.5C1.83696 22.5 1.20107 22.7634 0.732233 23.2322C0.263392 23.7011 0 24.337 0 25L0 31.25C0 31.913 0.263392 32.5489 0.732233 33.0178C1.20107 33.4866 1.83696 33.75 2.5 33.75H18.75C18.8522 33.7501 18.954 33.7375 19.0531 33.7125L29.0531 31.2125C29.1169 31.1973 29.1791 31.1764 29.2391 31.15L35.3125 28.5656L35.3812 28.5344C35.965 28.2427 36.4648 27.8072 36.8337 27.269C37.2026 26.7308 37.4284 26.1075 37.4898 25.4579C37.5512 24.8082 37.4463 24.1537 37.1848 23.5558C36.9233 22.958 36.514 22.4365 35.9953 22.0406H35.9891ZM2.5 25H6.25V31.25H2.5V25ZM34.2859 26.2828L28.3484 28.8109L18.5938 31.25H8.75V24.2672L12.2859 20.7328C12.5172 20.4997 12.7926 20.3148 13.096 20.189C13.3993 20.0632 13.7247 19.999 14.0531 20H21.875C22.3723 20 22.8492 20.1975 23.2008 20.5492C23.5525 20.9008 23.75 21.3777 23.75 21.875C23.75 22.3723 23.5525 22.8492 23.2008 23.2008C22.8492 23.5525 22.3723 23.75 21.875 23.75H17.5C17.1685 23.75 16.8505 23.8817 16.6161 24.1161C16.3817 24.3505 16.25 24.6685 16.25 25C16.25 25.3315 16.3817 25.6495 16.6161 25.8839C16.8505 26.1183 17.1685 26.25 17.5 26.25H22.5C22.5941 26.2497 22.6879 26.2393 22.7797 26.2188L33.2484 23.8109L33.2969 23.7984C33.6165 23.7097 33.9576 23.7423 34.2545 23.89C34.5515 24.0376 34.7834 24.2899 34.9056 24.5982C35.0278 24.9066 35.0316 25.2492 34.9163 25.5602C34.8011 25.8712 34.5749 26.1286 34.2812 26.2828H34.2859ZM25.625 15C25.9338 15.0004 26.2422 14.9753 26.5469 14.925C26.8896 15.943 27.5167 16.8417 28.3539 17.5146C29.1912 18.1876 30.2037 18.6067 31.2716 18.7225C32.3395 18.8382 33.4183 18.6458 34.3803 18.1679C35.3423 17.6901 36.1474 16.9467 36.7004 16.0258C37.2533 15.1049 37.531 14.0448 37.5006 12.9711C37.4702 11.8973 37.133 10.8547 36.5289 9.96656C35.9247 9.07838 35.0789 8.38176 34.0913 7.95906C33.1038 7.53636 32.0159 7.40526 30.9562 7.58125C30.6262 6.60039 30.032 5.72958 29.239 5.06465C28.446 4.39973 27.4849 3.96647 26.4615 3.81256C25.4381 3.65865 24.3921 3.79004 23.4386 4.19229C22.485 4.59454 21.661 5.25204 21.057 6.09245C20.4531 6.93285 20.0927 7.92357 20.0156 8.95559C19.9384 9.9876 20.1475 11.0209 20.6197 11.9418C21.0919 12.8626 21.8091 13.6354 22.6922 14.175C23.5753 14.7145 24.5901 15 25.625 15ZM35 13.125C35 13.7431 34.8167 14.3473 34.4733 14.8612C34.13 15.3751 33.6419 15.7756 33.0709 16.0121C32.4999 16.2486 31.8715 16.3105 31.2653 16.19C30.6592 16.0694 30.1023 15.7718 29.6653 15.3347C29.2283 14.8977 28.9306 14.3409 28.81 13.7347C28.6895 13.1285 28.7514 12.5001 28.9879 11.9291C29.2244 11.3581 29.6249 10.87 30.1388 10.5267C30.6527 10.1833 31.2569 10 31.875 10C32.7038 10 33.4987 10.3292 34.0847 10.9153C34.6708 11.5013 35 12.2962 35 13.125ZM25.625 6.25C26.3067 6.25034 26.9696 6.47361 27.5127 6.88575C28.0557 7.29789 28.4491 7.87631 28.6328 8.53281C27.9926 8.98328 27.4535 9.5624 27.0499 10.2332C26.6463 10.9039 26.3872 11.6515 26.2891 12.4281C26.0708 12.4753 25.8483 12.4993 25.625 12.5C24.7962 12.5 24.0013 12.1708 23.4153 11.5847C22.8292 10.9987 22.5 10.2038 22.5 9.375C22.5 8.5462 22.8292 7.75134 23.4153 7.16529C24.0013 6.57924 24.7962 6.25 25.625 6.25Z" fill="#0E74A3"/>
</svg>
