<svg width="40" height="40" viewBox="0 0 40 40" fill="none" xmlns="http://www.w3.org/2000/svg">
<path d="M15 33.3334L5.92167 28.7934C5.64487 28.6551 5.41204 28.4425 5.24925 28.1793C5.08647 27.9161 5.00017 27.6129 5 27.3034V9.36341C5.00015 9.07943 5.07286 8.80019 5.21124 8.5522C5.34962 8.30421 5.54906 8.09569 5.79066 7.94642C6.03225 7.79716 6.30798 7.7121 6.59168 7.69933C6.87537 7.68655 7.15763 7.74647 7.41167 7.87341L15 11.6667M15 33.3334V11.6667M15 33.3334L25 28.3334M15 11.6667L25 6.66675M25 28.3334L32.5883 32.1267C32.8424 32.2537 33.1246 32.3136 33.4083 32.3008C33.692 32.2881 33.9677 32.203 34.2093 32.0537C34.4509 31.9045 34.6504 31.696 34.7888 31.448C34.9271 31.2 34.9998 30.9207 35 30.6367V12.6967C34.9998 12.3873 34.9135 12.084 34.7507 11.8209C34.588 11.5577 34.3551 11.3451 34.0783 11.2067L25 6.66675M25 28.3334V6.66675" stroke="#0E74A3" stroke-width="2" stroke-linecap="round" stroke-linejoin="round"/>
</svg>
