<svg width="40" height="40" viewBox="0 0 40 40" fill="none" xmlns="http://www.w3.org/2000/svg">
<path d="M31.6667 33.3334H8.33333C7.44928 33.3334 6.60143 32.9822 5.97631 32.3571C5.35119 31.732 5 30.8841 5 30.0001V10.0001C5 9.11603 5.35119 8.26818 5.97631 7.64306C6.60143 7.01794 7.44928 6.66675 8.33333 6.66675H25C25.8841 6.66675 26.7319 7.01794 27.357 7.64306C27.9821 8.26818 28.3333 9.11603 28.3333 10.0001V11.6667M31.6667 33.3334C30.7826 33.3334 29.9348 32.9822 29.3096 32.3571C28.6845 31.732 28.3333 30.8841 28.3333 30.0001V11.6667M31.6667 33.3334C32.5507 33.3334 33.3986 32.9822 34.0237 32.3571C34.6488 31.732 35 30.8841 35 30.0001V15.0001C35 14.116 34.6488 13.2682 34.0237 12.6431C33.3986 12.0179 32.5507 11.6667 31.6667 11.6667H28.3333M21.6667 6.66675H15M11.6667 26.6667H21.6667M11.6667 13.3334H21.6667V20.0001H11.6667V13.3334Z" stroke="#0E74A3" stroke-width="2" stroke-linecap="round" stroke-linejoin="round"/>
</svg>
