<svg width="115" height="50" viewBox="0 0 115 50" fill="none" xmlns="http://www.w3.org/2000/svg">
<path d="M36.8813 9.24552L27.9973 9.2633V13.1037H41.9486V9.22774L36.8813 9.23959V9.24552ZM42.2093 4.74722C41.5633 3.06406 40.5202 1.85503 39.0742 1.1142C37.634 0.36745 35.6841 0 33.2305 0C32.1341 0 31.1858 0.0355597 30.3857 0.100752C29.5856 0.165945 28.8567 0.248917 28.1929 0.355596C27.5232 0.462276 26.8238 0.616368 26.0949 0.806019L26.5809 5.26283C27.3335 5.22135 28.0269 5.19764 28.6611 5.19764C29.2952 5.19764 29.9709 5.18579 30.6939 5.16208C31.417 5.1443 32.2585 5.13245 33.2305 5.13245C34.2025 5.13245 34.9848 5.3221 35.5241 5.69548C36.0634 6.06885 36.4368 6.71485 36.6561 7.63348C36.7568 8.07797 36.8339 8.6173 36.8813 9.24552C36.9346 9.90337 36.9524 10.6679 36.9406 11.5273C36.9465 12.0962 36.9406 12.6296 36.9228 13.1097C36.8813 14.0461 36.7924 14.8165 36.6502 15.421C36.4368 16.3337 36.0575 16.9797 35.5182 17.3591C34.9789 17.7384 34.2143 17.9221 33.2246 17.9221C31.7429 17.9221 30.4865 17.9043 29.4612 17.8569C28.4359 17.8154 27.4106 17.7384 26.3793 17.6317L25.9289 22.0589C26.9839 22.4263 28.0507 22.6871 29.1411 22.8352C30.2257 22.9834 31.5888 23.0605 33.2246 23.0605C35.6782 23.0605 37.6281 22.6871 39.0682 21.9462C40.5143 21.2054 41.5574 19.9905 42.2034 18.3132C42.8494 16.6301 43.1694 14.372 43.1694 11.5273C43.1694 8.68249 42.8435 6.42445 42.2034 4.74722H42.2093Z" fill="white"/>
<path d="M61.6368 18.9414C61.3226 17.9635 61.0263 17.193 60.7478 16.63C60.4633 16.0729 60.1551 15.6521 59.8054 15.3676C59.4617 15.0891 59.0409 14.8816 58.5431 14.7572C58.0512 14.6268 57.4229 14.5083 56.6703 14.4016V14.2356C57.3992 14.129 58.0037 14.0045 58.4779 13.8623C58.952 13.72 59.3372 13.5185 59.6395 13.2518C59.9417 12.9851 60.2084 12.5821 60.4455 12.0546C60.6826 11.5272 60.9374 10.8219 61.2041 9.93884C61.4708 9.05578 61.8146 7.9475 62.2235 6.61401H56.3147C55.9709 7.97121 55.6864 9.038 55.4553 9.80846C55.2301 10.5848 54.999 11.1597 54.7619 11.539C54.5248 11.9183 54.2344 12.1673 53.8907 12.2799C53.5469 12.3984 53.0847 12.4577 52.5039 12.4577L52.6046 16.2685C53.055 16.2685 53.4284 16.2862 53.7188 16.3337C54.0092 16.3751 54.2641 16.4878 54.4774 16.6715C54.6908 16.8493 54.8982 17.1693 55.0878 17.6197C55.2834 18.0702 55.5027 18.7043 55.7516 19.5103C55.9946 20.3223 56.3087 21.3713 56.6703 22.6633H62.7747C62.3242 21.1579 61.939 19.9133 61.6308 18.9354L61.6368 18.9414ZM50.6014 12.4636V16.2744H53.8966V12.4636H50.6014ZM51.7808 12.3688C51.923 11.6813 51.9882 11.0234 51.9882 10.3952V6.61401H46.1446V22.6692H51.9882V17.596C51.9882 17.2049 51.9349 16.7604 51.8223 16.2744C51.8045 16.1736 51.7749 16.0729 51.7452 15.9662C51.5852 15.3558 51.3837 14.7868 51.1467 14.2712C51.4134 13.7141 51.6149 13.1155 51.7512 12.4577C51.763 12.428 51.7689 12.3925 51.7749 12.3628L51.7808 12.3688Z" fill="white"/>
<path d="M10.7568 29.1648V45.2141H16.5056V29.1648H10.7568ZM5.5888 34.8425V38.6829H11.0472V34.8425H5.5888ZM0 29.1648V45.2141H5.81401V29.1648H0Z" fill="white"/>
<path d="M34.7833 31.2273C34.2677 30.3205 33.5091 29.6745 32.5252 29.2893C31.5296 28.9041 30.3146 28.7085 28.8745 28.7085C28.0566 28.7085 27.1143 28.7441 26.0475 28.8211C24.9807 28.8981 23.908 28.993 22.8352 29.1115C21.7625 29.23 20.8261 29.3663 20.026 29.5145L20.5416 33.2957C21.8751 33.2127 23.1553 33.1475 24.3821 33.1179C25.6089 33.0823 26.6401 33.0705 27.4817 33.0705C28.3233 33.0705 28.8685 33.2127 29.1826 33.5091C29.4908 33.7995 29.6568 34.2795 29.6805 34.9433V41.1781L30.0657 41.7589L30.3087 42.7961L30.8717 45.2141H35.5537V34.9729C35.5537 33.3787 35.293 32.1282 34.7833 31.2273ZM25.2533 38.7067C25.4904 38.4815 25.846 38.357 26.3201 38.3333H33.2009L33.2305 35.3641H24.2873C22.7167 35.3641 21.4721 35.7256 20.5594 36.4487C19.6408 37.1717 19.1904 38.1792 19.1904 39.4653V41.0833C19.1904 42.0967 19.4334 42.9324 19.9193 43.6021C20.4053 44.2718 21.0513 44.7755 21.8751 45.1193C22.693 45.463 23.582 45.6349 24.554 45.6349C25.6089 45.6349 26.5334 45.463 27.3335 45.1193C28.1277 44.7696 28.8093 44.337 29.3664 43.8095C29.722 43.4717 30.042 43.1339 30.3205 42.7961C30.4746 42.6123 30.611 42.4227 30.7413 42.239C31.0969 41.7233 31.3636 41.2907 31.5296 40.947V38.8786C31.1029 39.3527 30.5932 39.7972 30.0124 40.2002C29.9057 40.2772 29.799 40.3484 29.6923 40.4195C29.2182 40.7277 28.7322 40.9825 28.2403 41.1722C27.6358 41.4092 27.0668 41.5278 26.5275 41.5278C25.9882 41.5278 25.5852 41.4152 25.3185 41.1899C25.0518 40.9647 24.9155 40.6447 24.9155 40.2358V39.6253C24.9155 39.2401 25.034 38.9319 25.2711 38.7008L25.2533 38.7067Z" fill="white"/>
<path d="M53.6417 31.2273C53.1261 30.3205 52.3734 29.6745 51.3837 29.2893C50.394 28.9041 49.179 28.7085 47.7329 28.7085C46.915 28.7085 45.9727 28.7441 44.9059 28.8211C43.8391 28.8981 42.7664 28.993 41.6937 29.1115C40.621 29.23 39.6786 29.3663 38.8845 29.5145L39.4001 33.2957C40.7336 33.2127 42.0197 33.1475 43.2405 33.1179C44.4673 33.0823 45.5045 33.0705 46.3402 33.0705C47.1758 33.0705 47.727 33.2127 48.0352 33.5091C48.3493 33.7995 48.5152 34.2795 48.533 34.9433V41.1781L48.9182 41.7589L49.1612 42.7961L49.7243 45.2141H54.4063V34.9729C54.4063 33.3787 54.1455 32.1282 53.6299 31.2273H53.6417ZM44.1177 38.7067C44.3547 38.4815 44.7044 38.357 45.1845 38.3333H52.0653L52.0949 35.3641H43.1516C41.5811 35.3641 40.3365 35.7256 39.4238 36.4487C38.5111 37.1717 38.0547 38.1792 38.0547 39.4653V41.0833C38.0547 42.0967 38.2977 42.9324 38.7778 43.6021C39.2638 44.2718 39.9157 44.7755 40.7336 45.1193C41.5515 45.463 42.4464 45.6349 43.4183 45.6349C44.4733 45.6349 45.3978 45.463 46.1979 45.1193C46.9921 44.7696 47.6736 44.337 48.2307 43.8095C48.5863 43.4717 48.9064 43.1339 49.179 42.7961C49.3331 42.6123 49.4694 42.4227 49.5998 42.239C49.9554 41.7233 50.2221 41.2907 50.388 40.947V38.8786C49.9613 39.3527 49.4516 39.7972 48.8708 40.2002C48.7641 40.2772 48.6575 40.3484 48.5449 40.4195C48.0707 40.7277 47.5788 40.9825 47.0928 41.1722C46.4883 41.4092 45.9194 41.5278 45.386 41.5278C44.8526 41.5278 44.4436 41.4152 44.1769 41.1899C43.9102 40.9647 43.7739 40.6447 43.7739 40.2358V39.6253C43.7739 39.2401 43.8925 38.9319 44.1295 38.7008L44.1177 38.7067Z" fill="white"/>
<path d="M72.2158 45.054L72.2276 45.2141L72.601 49.6709H76.5066V45.054H72.2098H72.2158ZM68.3338 29.1648V45.2141H73.8574V29.1648H68.3338ZM64.9142 29.1648C63.5096 29.1648 62.4487 29.4908 61.7138 30.1486C60.9789 30.8065 60.5285 31.7666 60.3566 33.0408C60.161 34.398 59.918 35.7433 59.6276 37.0768C59.3372 38.4103 58.9579 39.7616 58.4838 41.1128C58.4601 41.178 58.4423 41.2432 58.4127 41.3084C57.9682 42.553 57.4111 43.7976 56.7295 45.054C56.6999 45.1074 56.6762 45.1607 56.6465 45.2141H61.1034C61.8975 44.2658 62.5672 43.2879 63.1066 42.2745C63.2725 41.9663 63.4266 41.6403 63.5748 41.3025C63.9126 40.538 64.2089 39.7082 64.4637 38.8015C64.8253 37.4976 65.1512 35.9508 65.4357 34.1669C65.5602 33.2838 66.0462 32.8452 66.8877 32.8452H73.4781V29.1648H64.9201H64.9142ZM56.4213 45.054V49.6709H60.2973L60.7003 45.2141L60.7122 45.054H56.4154H56.4213ZM56.4213 41.3084V45.2141H76.5126V41.3084H56.4213Z" fill="white"/>
<path d="M96.663 36.6086C96.1889 35.8204 95.377 35.2692 94.2272 34.9432C93.0715 34.6173 91.495 34.4573 89.4977 34.4573H82.6821V37.8117H89.4977C90.3393 37.8117 90.8786 37.9362 91.1098 38.1851C91.3469 38.434 91.4654 38.9319 91.4654 39.6905C91.4654 40.2061 91.412 40.6032 91.2994 40.8876C91.1928 41.1662 90.9972 41.3499 90.7186 41.4329C90.4401 41.5159 90.0311 41.5633 89.4918 41.5633C88.9051 41.5633 88.3421 41.5633 87.8087 41.5633C86.8545 41.5573 85.9833 41.5455 85.195 41.5336C83.9682 41.5159 83.1385 41.4922 82.7059 41.4684L82.3206 45.2141C83.1148 45.2556 83.909 45.297 84.6913 45.3267C85.4795 45.3622 86.3389 45.38 87.2753 45.3919C88.2117 45.4037 89.2962 45.4096 90.5171 45.4096C92.0877 45.4096 93.3856 45.2496 94.3931 44.9237C95.4066 44.5977 96.1533 44.0406 96.6334 43.2405C97.1194 42.4463 97.3624 41.3381 97.3624 39.9157C97.3624 38.4933 97.1253 37.3909 96.6512 36.6086H96.663ZM82.1606 29.1648V45.2141H87.8087V29.1648H82.1606ZM76.8622 29.1648V33.3964H85.2602V29.1648H76.8622Z" fill="white"/>
<path d="M109.287 29.0345V45.2141H115V29.0345H109.287ZM106.993 36.4249C106.264 36.4249 105.778 36.2827 105.541 36.0042C105.304 35.7256 105.186 35.1744 105.186 34.3566C105.186 33.7995 105.304 33.4083 105.541 33.1949C105.778 32.9757 106.264 32.869 106.993 32.869C107.823 32.869 108.581 32.869 109.287 32.869C110.472 32.869 111.48 32.869 112.321 32.8808C113.655 32.8927 114.407 32.9342 114.579 32.9994L115 29.0285C114.33 28.9396 113.655 28.8804 112.967 28.8507C112.28 28.8211 111.456 28.7974 110.502 28.7915C109.542 28.7796 108.333 28.7737 106.869 28.7737C105.405 28.7737 104.16 28.8507 103.2 29.0167C102.246 29.1767 101.487 29.4552 100.942 29.8405C100.397 30.2257 100.012 30.7591 99.7923 31.4229C99.5789 32.0926 99.4663 32.9282 99.4663 33.9417C99.4663 34.564 99.573 35.1803 99.7923 35.7849C100.012 36.3894 100.373 36.9109 100.877 37.3495C101.387 37.7881 102.098 38.0962 103.022 38.2681V38.4341C102.696 38.4518 102.323 38.5111 101.89 38.5941C101.458 38.6771 101.061 38.843 100.693 39.0801C100.326 39.3171 100.065 39.6727 99.9168 40.1469L98.6544 45.22H104.664L105.666 40.9232C105.731 40.5617 105.879 40.3128 106.104 40.1824C106.329 40.052 106.703 39.9868 107.218 39.9868H111.029C111.977 39.9868 112.724 39.975 113.269 39.9572C113.821 39.9335 114.295 39.9157 114.71 39.892L114.609 36.4309H106.987L106.993 36.4249Z" fill="white"/>
<path d="M77.3127 6.25856C76.8267 5.65998 76.1807 5.29253 75.4458 5.24511C70.3311 4.85396 68.1383 8.38029 68.0435 8.54031C67.9961 8.63513 67.9961 8.74774 68.0435 8.84257C68.0909 8.93739 68.2035 8.97888 68.322 8.97888C70.8349 8.81886 72.1269 9.67229 73.1641 10.3598C73.6263 10.662 74.0412 10.9347 74.5035 11.0769C74.7346 11.148 74.9658 11.1895 75.1969 11.1895C75.6355 11.1895 76.074 11.0532 76.4889 10.7983C76.6015 10.7272 76.6963 10.662 76.8089 10.5672L76.2578 10.265L72.2691 7.9358C74.2309 8.00691 75.7718 8.5818 76.9037 9.64266C77.0401 9.77897 77.1823 9.92121 77.3186 10.0812C77.6624 10.4724 77.9409 10.911 78.1958 11.3969C78.3084 11.6281 78.7647 12.5645 78.8595 12.8134C78.9069 12.926 79.0196 12.9971 79.1381 12.9971C79.1855 12.9971 79.2092 12.9971 79.2507 12.9734C79.4107 12.9023 79.4818 12.7423 79.4107 12.5823C79.067 11.6577 78.2432 10.1938 77.6387 9.54783C77.775 9.24558 77.8935 8.94925 77.9409 8.62328C78.0772 7.79356 77.8461 6.91642 77.3186 6.24671L77.3127 6.25856Z" fill="white"/>
<path d="M81.7339 13.2401C81.6865 13.1453 81.5976 13.0801 81.4554 13.0801C81.3428 13.0801 81.2479 13.1512 81.2005 13.2401C80.0923 15.4981 78.7114 16.1916 77.6031 16.7427C77.1171 16.9976 76.6607 17.2287 76.3111 17.5487C75.8014 18.011 75.5288 18.6807 75.5525 19.4156C75.5525 19.5519 75.5762 19.6705 75.5999 19.8068L76.1511 19.4867L80.1634 17.205C79.1025 18.8645 77.8579 19.9016 76.3822 20.3639C76.1985 20.4113 75.991 20.4765 75.8073 20.5002C75.2976 20.595 74.7702 20.6365 74.219 20.595C73.9641 20.5713 72.6662 20.5476 72.4114 20.5002C72.2514 20.4765 72.0913 20.595 72.0676 20.755C72.0439 20.9151 72.1625 21.0751 72.3225 21.0988C72.761 21.1699 74.1953 21.1936 74.6101 21.1936C75.1198 21.1936 75.6236 21.1462 76.0859 21.0336C76.2696 21.3121 76.477 21.5611 76.7319 21.7507C77.283 22.1893 77.9528 22.4441 78.6699 22.4441C78.8062 22.4441 78.9721 22.4204 79.1084 22.4204C79.4996 22.373 79.8433 22.2367 80.1456 22.053C80.4479 21.8692 80.7205 21.6144 80.9279 21.3181C83.7845 17.0509 81.8288 13.3883 81.7339 13.252V13.2401Z" fill="white"/>
<path d="M65.9691 14.1409C65.1868 14.4432 64.5408 15.0655 64.2149 15.8715C63.9363 16.5886 63.96 17.3472 64.2623 17.9932C66.4966 22.6041 70.6452 22.7404 70.829 22.7404C70.9416 22.7404 71.0364 22.693 71.0838 22.5804C71.1312 22.4856 71.1312 22.373 71.0601 22.2782C69.6555 20.1801 69.7444 18.6333 69.8392 17.3887C69.8629 16.8612 69.9103 16.3278 69.7918 15.8656C69.6555 15.1959 69.2169 14.621 68.5709 14.2772C68.4583 14.2061 68.3398 14.1646 68.2272 14.1172V14.7632L68.2035 19.3741C67.2789 17.6436 67.0063 16.0315 67.3738 14.5321C67.4212 14.3484 67.4686 14.1409 67.5338 13.9572C67.6938 13.4712 67.9249 13.0149 68.2509 12.5289C68.3872 12.3215 69.2288 11.0709 69.3947 10.8635C69.4896 10.7272 69.4896 10.5435 69.3473 10.4486C69.2051 10.3538 69.0273 10.3775 68.9325 10.4961C68.3102 11.2547 67.19 13.086 66.9352 13.9157C66.5914 13.9631 66.2655 14.0283 65.9691 14.1469V14.1409Z" fill="white"/>
</svg>
