<svg width="115" height="49" viewBox="0 0 115 49" fill="none" xmlns="http://www.w3.org/2000/svg">
<path d="M8.63246 2.82935C9.62062 2.82935 10.4596 2.85731 11.1541 2.91325C11.8487 2.96918 12.4826 3.04842 13.0652 3.14164C13.6432 3.23487 14.2398 3.37004 14.8458 3.5425L14.4449 7.47652C13.797 7.43923 13.2004 7.41592 12.6504 7.4066C12.1004 7.39728 11.5084 7.38795 10.8838 7.37863C10.2545 7.36931 9.50409 7.36465 8.63246 7.36465C7.85404 7.36465 7.23877 7.52779 6.79596 7.84941C6.34849 8.17103 6.04086 8.74435 5.86839 9.56005C5.69593 10.3758 5.61203 11.5271 5.61203 13.0093C5.61203 14.4916 5.69593 15.6429 5.86839 16.4586C6.04086 17.2743 6.34849 17.8476 6.79596 18.1692C7.24343 18.4908 7.85404 18.654 8.63246 18.654C10.0168 18.654 11.1728 18.6353 12.0957 18.598C13.0186 18.5607 13.9415 18.4955 14.8737 18.3976L15.2746 22.3036C14.3237 22.6253 13.3495 22.8537 12.3521 22.9888C11.3546 23.1194 10.1147 23.1893 8.63246 23.1893C6.52562 23.1893 4.83828 22.863 3.57511 22.2058C2.31193 21.5485 1.39835 20.4811 0.839008 18.9989C0.279669 17.5166 0 15.5217 0 13.014C0 10.5063 0.279669 8.51129 0.839008 7.02905C1.39835 5.5468 2.31193 4.47939 3.57511 3.82217C4.83828 3.16495 6.52562 2.83867 8.63246 2.83867V2.82935Z" fill="white"/>
<path d="M24.4151 8.2688C26.2749 8.2688 27.7665 8.51118 28.8898 8.99594C30.0085 9.4807 30.8195 10.2684 31.3136 11.3591C31.8077 12.4499 32.0547 13.9181 32.0547 15.7593C32.0547 17.6004 31.8077 19.0314 31.3136 20.1035C30.8195 21.1755 30.0132 21.9539 28.8898 22.4387C27.7665 22.9235 26.2796 23.1658 24.4151 23.1658C22.5507 23.1658 21.0917 22.9235 19.9684 22.4387C18.845 21.9539 18.034 21.1755 17.5306 20.1035C17.0272 19.0314 16.7755 17.5818 16.7755 15.7593C16.7755 13.9368 17.0272 12.4499 17.5306 11.3591C18.034 10.2684 18.845 9.4807 19.9684 8.99594C21.0871 8.51118 22.5693 8.2688 24.4151 8.2688ZM24.4151 11.8905C23.8465 11.8905 23.399 11.9931 23.0774 12.2028C22.7557 12.4126 22.5273 12.7901 22.3922 13.3448C22.257 13.8948 22.1917 14.7012 22.1917 15.7686C22.1917 16.836 22.257 17.6098 22.3922 18.1644C22.5227 18.7144 22.7511 19.092 23.0774 19.2878C23.399 19.4882 23.8465 19.5861 24.4151 19.5861C24.9838 19.5861 25.4592 19.4882 25.7808 19.2878C26.1025 19.0873 26.3262 18.7144 26.452 18.1644C26.5732 17.6144 26.6385 16.8174 26.6385 15.7686C26.6385 14.7198 26.5779 13.8995 26.452 13.3448C26.3262 12.7948 26.1071 12.4126 25.7808 12.2028C25.4592 11.9931 25.0024 11.8905 24.4151 11.8905Z" fill="white"/>
<path d="M41.6008 8.26879C44.1458 8.26879 45.959 8.6883 47.045 9.52264C48.1264 10.357 48.6764 11.5922 48.6997 13.2283C48.7184 14.538 48.3548 15.4982 47.6044 16.1042C46.8539 16.7101 45.5488 17.0178 43.6843 17.0178H35.9049V14.4262H42.2301C42.8547 14.4262 43.2602 14.333 43.442 14.1418C43.6237 13.9507 43.7123 13.6105 43.7123 13.1164C43.7123 12.5664 43.5632 12.1935 43.2695 12.007C42.9758 11.8159 42.4771 11.7227 41.7733 11.7227C41.1067 11.7041 40.5987 11.7786 40.2491 11.9511C39.8995 12.1236 39.6571 12.4638 39.5219 12.9766C39.3868 13.4893 39.3215 14.2584 39.3215 15.2838C39.3215 16.3093 39.4007 17.097 39.5639 17.647C39.727 18.1971 40.0207 18.5886 40.4495 18.817C40.8783 19.0454 41.4796 19.1572 42.258 19.1572C42.8826 19.1572 43.6983 19.1339 44.6958 19.0873C45.6933 19.0407 46.7421 18.9568 47.8468 18.845L48.3035 21.9772C47.6976 22.2802 47.0264 22.5179 46.2946 22.6904C45.5628 22.8629 44.8077 22.9841 44.0293 23.0586C43.2509 23.1332 42.4724 23.1705 41.694 23.1705C39.8156 23.1705 38.296 22.9048 37.1494 22.3734C35.9981 21.8421 35.1731 21.031 34.6697 19.9357C34.1663 18.845 33.9146 17.4699 33.9146 15.8199C33.9146 13.9601 34.1709 12.4778 34.6837 11.3731C35.1964 10.2731 36.0167 9.47603 37.1494 8.99593C38.2774 8.51117 39.7643 8.26879 41.6101 8.26879H41.6008ZM39.8342 2.60083C40.5194 2.60083 40.8597 2.93177 40.8597 3.59832V5.36489C40.8597 6.03144 40.5194 6.36238 39.8342 6.36238H38.1236C37.457 6.36238 37.1261 6.03144 37.1261 5.36489V3.59832C37.1261 2.93177 37.457 2.60083 38.1236 2.60083H39.8342ZM45.1619 2.60083C45.8285 2.60083 46.1594 2.93177 46.1594 3.59832V5.36489C46.1594 6.03144 45.8285 6.36238 45.1619 6.36238H43.4513C42.7661 6.36238 42.4258 6.03144 42.4258 5.36489V3.59832C42.4258 2.93177 42.7661 2.60083 43.4513 2.60083H45.1619Z" fill="white"/>
<path d="M64.8506 8.66968V12.091H58.8098C58.3903 12.091 58.078 12.1842 57.8682 12.3753C57.6585 12.5664 57.528 12.8601 57.4674 13.2609C57.3928 14.002 57.3042 14.7478 57.211 15.4983C57.1178 16.2487 57.0152 16.9525 56.9127 17.6051C56.8101 18.2623 56.7076 18.817 56.6144 19.2738C56.4233 20.4344 56.0084 21.3107 55.3605 21.9074C54.7126 22.504 53.9342 22.8769 53.0253 23.0167C52.1117 23.1612 51.1468 23.1472 50.1167 22.9748L49.604 19.1852C50.0049 19.1107 50.3638 19.0407 50.6854 18.9848C51.007 18.9289 51.2774 18.8217 51.4964 18.6725C51.7155 18.5187 51.8693 18.253 51.9672 17.8755C52.0604 17.6098 52.1443 17.2975 52.2096 16.9339C52.2748 16.575 52.3401 16.1508 52.41 15.6661C52.4753 15.1813 52.5312 14.6593 52.5825 14.0999C52.6291 13.5406 52.6804 12.9253 52.741 12.2634C52.8528 11.0842 53.2211 10.1939 53.8363 9.58327C54.4516 8.97732 55.3699 8.66968 56.5864 8.66968H64.8506ZM65.2189 8.66968V22.8303H60.0636V8.66968H65.2189Z" fill="white"/>
<path d="M81.3185 8.66968V12.5431H67.1299V8.66968H81.3185ZM76.8158 8.66968V22.8303H71.6606V8.66968H76.8158Z" fill="white"/>
<path d="M90.24 8.2688C92.0998 8.2688 93.5913 8.51118 94.7147 8.99594C95.8333 9.4807 96.6444 10.2684 97.1385 11.3591C97.6326 12.4499 97.8796 13.9181 97.8796 15.7593C97.8796 17.6004 97.6326 19.0314 97.1385 20.1035C96.6444 21.1755 95.838 21.9539 94.7147 22.4387C93.5913 22.9235 92.1044 23.1658 90.24 23.1658C88.3755 23.1658 86.9166 22.9235 85.7932 22.4387C84.6699 21.9539 83.8588 21.1755 83.3554 20.1035C82.852 19.0314 82.6003 17.5818 82.6003 15.7593C82.6003 13.9368 82.852 12.4499 83.3554 11.3591C83.8588 10.2684 84.6699 9.4807 85.7932 8.99594C86.9119 8.51118 88.3941 8.2688 90.24 8.2688ZM90.24 11.8905C89.6713 11.8905 89.2238 11.9931 88.9022 12.2028C88.5806 12.4126 88.3522 12.7901 88.217 13.3448C88.0818 13.8948 88.0166 14.7012 88.0166 15.7686C88.0166 16.836 88.0818 17.6098 88.217 18.1644C88.3475 18.7144 88.5759 19.092 88.9022 19.2878C89.2238 19.4882 89.6713 19.5861 90.24 19.5861C90.8086 19.5861 91.2841 19.4882 91.6057 19.2878C91.9273 19.0873 92.151 18.7144 92.2769 18.1644C92.3981 17.6144 92.4633 16.8174 92.4633 15.7686C92.4633 14.7198 92.4027 13.8995 92.2769 13.3448C92.151 12.7948 91.932 12.4126 91.6057 12.2028C91.2841 11.9931 90.8273 11.8905 90.24 11.8905Z" fill="white"/>
<path d="M115 8.66968V22.8303L110.385 22.8862V16.4771C110.385 16.0576 110.404 15.6567 110.441 15.2652C110.479 14.8783 110.525 14.4448 110.586 13.9694H110.474C110.339 14.3703 110.166 14.7851 109.947 15.2233C109.728 15.6614 109.514 16.0296 109.304 16.3326L104.885 22.8303H100.327V8.66968H104.941V15.3678C104.941 15.7267 104.923 16.0809 104.885 16.4212C104.848 16.7614 104.801 17.1437 104.741 17.5632H104.853C104.983 17.1623 105.146 16.7987 105.337 16.4678C105.529 16.1368 105.724 15.8059 105.934 15.4843L110.465 8.67434H114.995L115 8.66968Z" fill="white"/>
<path d="M11.8953 30.209V44.3696H6.76801V30.209H11.8953ZM16.5098 35.2244V38.613H11.6948V35.2244H16.5098ZM21.3248 30.209V44.3696H16.2535V30.209H21.3248Z" fill="white"/>
<path d="M36.0867 35.6812L36.0587 38.3007H29.9899C29.5704 38.3194 29.2581 38.4312 29.0483 38.627C28.8386 38.8274 28.736 39.0978 28.736 39.438V39.9787C28.736 40.3377 28.8525 40.622 29.0903 40.8178C29.328 41.0182 29.6822 41.1161 30.1577 41.1161C30.6331 41.1161 31.1365 41.0135 31.6679 40.8038C32.1992 40.594 32.7213 40.3097 33.234 39.9508C33.7468 39.5919 34.1942 39.2003 34.5718 38.7808V40.6033C34.418 40.9063 34.1849 41.2885 33.8726 41.7453C33.5603 42.2021 33.1548 42.6636 32.6607 43.125C32.1666 43.5911 31.57 43.9734 30.8662 44.281C30.1623 44.584 29.3466 44.7378 28.4144 44.7378C27.5614 44.7378 26.769 44.584 26.0512 44.281C25.3287 43.978 24.7554 43.5305 24.3266 42.9432C23.8977 42.3559 23.6833 41.6148 23.6833 40.7199V39.2936C23.6833 38.1516 24.0888 37.266 24.8952 36.6274C25.7016 35.9888 26.8016 35.6718 28.186 35.6718H36.0773L36.0867 35.6812ZM32.2365 29.8081C33.509 29.8081 34.5811 29.9806 35.4574 30.3208C36.329 30.6611 36.9956 31.2344 37.4524 32.0315C37.9092 32.8285 38.1376 33.9332 38.1376 35.3362V44.3695H34.0078L33.2946 41.3212L32.9544 40.8084V35.3083C32.9357 34.721 32.7866 34.2968 32.5115 34.0404C32.2365 33.7841 31.7378 33.6536 31.0153 33.6536C30.2928 33.6536 29.3606 33.6675 28.2792 33.6955C27.1978 33.7235 26.0652 33.7747 24.8906 33.854L24.4338 30.5213C25.1376 30.3907 25.9626 30.2696 26.9135 30.167C27.8644 30.0645 28.8106 29.9759 29.7475 29.9107C30.689 29.8454 31.5187 29.8128 32.2412 29.8128L32.2365 29.8081Z" fill="white"/>
<path d="M52.727 35.6812L52.699 38.3007H46.6302C46.2107 38.3194 45.8984 38.4312 45.6886 38.627C45.4789 38.8274 45.3763 39.0978 45.3763 39.438V39.9787C45.3763 40.3377 45.4929 40.622 45.7306 40.8178C45.9683 41.0182 46.3226 41.1161 46.798 41.1161C47.2734 41.1161 47.7768 41.0135 48.3082 40.8038C48.8396 40.594 49.3616 40.3097 49.8744 39.9508C50.3871 39.5919 50.8346 39.2003 51.2121 38.7808V40.6033C51.0583 40.9063 50.8252 41.2885 50.5129 41.7453C50.2006 42.2021 49.7951 42.6636 49.301 43.125C48.807 43.5911 48.2103 43.9734 47.5065 44.281C46.8027 44.584 45.987 44.7378 45.0547 44.7378C44.2017 44.7378 43.4093 44.584 42.6915 44.281C41.969 43.978 41.3957 43.5305 40.9669 42.9432C40.5381 42.3559 40.3237 41.6148 40.3237 40.7199V39.2936C40.3237 38.1516 40.7292 37.266 41.5356 36.6274C42.3419 35.9888 43.442 35.6718 44.8263 35.6718H52.7177L52.727 35.6812ZM48.8769 29.8081C50.1494 29.8081 51.2214 29.9806 52.0977 30.3208C52.9694 30.6611 53.6359 31.2344 54.0927 32.0315C54.5495 32.8285 54.7779 33.9332 54.7779 35.3362V44.3695H50.6481L49.935 41.3212L49.5947 40.8084V35.3083C49.576 34.721 49.4269 34.2968 49.1519 34.0404C48.8769 33.7841 48.3781 33.6536 47.6556 33.6536C46.9332 33.6536 46.0009 33.6675 44.9195 33.6955C43.8382 33.7235 42.7055 33.7747 41.5309 33.854L41.0741 30.5213C41.7779 30.3907 42.603 30.2696 43.5538 30.167C44.5047 30.0645 45.4509 29.9759 46.3878 29.9107C47.3294 29.8454 48.1591 29.8128 48.8815 29.8128L48.8769 29.8081Z" fill="white"/>
<path d="M74.2662 40.9203V44.3696H56.5445V40.9203H74.2662ZM60.334 44.2297L59.9658 48.3036H56.5445V44.2297H60.334ZM71.5907 30.209V33.4578H65.7782C65.0371 33.4578 64.6083 33.8493 64.4964 34.6278C64.2494 36.2032 63.9651 37.5689 63.6434 38.7156C63.3218 39.8669 62.9209 40.8877 62.4455 41.778C61.9701 42.6729 61.3828 43.5352 60.6789 44.3696H56.7449C57.4115 43.153 57.9522 41.9458 58.367 40.7525C58.7865 39.5546 59.1221 38.3707 59.3785 37.1914C59.6348 36.0121 59.8492 34.8282 60.0217 33.6303C60.1755 32.5116 60.5717 31.6586 61.2196 31.0806C61.8675 30.5026 62.8044 30.2136 64.0396 30.2136H71.5907V30.209ZM71.931 30.209V44.3696H67.0601V30.209H71.931ZM74.2662 44.2297V48.3036H70.8169L70.4767 44.2297H74.2662Z" fill="white"/>
<path d="M74.5831 30.209H81.9897V33.9426H74.5831V30.209ZM84.241 30.209V44.3696H79.2536V30.209H84.241ZM85.7233 34.8795C87.4899 34.8795 88.8836 35.024 89.8997 35.3083C90.9158 35.5926 91.6336 36.082 92.0531 36.7765C92.4726 37.4711 92.6824 38.4452 92.6824 39.6991C92.6824 40.9529 92.468 41.9318 92.0392 42.6356C91.6103 43.3395 90.9531 43.8335 90.0582 44.1179C89.1632 44.4022 88.0259 44.5467 86.6369 44.5467C85.5555 44.5467 84.6 44.542 83.7749 44.5327C82.9499 44.5234 82.1901 44.5047 81.4956 44.4768C80.8011 44.4488 80.1019 44.4162 79.4028 44.3789L79.743 41.0741C80.1206 41.0928 80.8524 41.1114 81.9384 41.1301C83.0198 41.1487 84.283 41.158 85.728 41.158C86.2034 41.158 86.5623 41.1207 86.8093 41.0462C87.0564 40.9716 87.2288 40.8084 87.3221 40.5614C87.4153 40.3144 87.4666 39.9648 87.4666 39.508C87.4666 38.8414 87.364 38.4033 87.1543 38.1842C86.9445 37.9651 86.4691 37.8579 85.728 37.8579H79.7151V34.8934H85.728L85.7233 34.8795Z" fill="white"/>
<path d="M101.054 29.864C102.345 29.864 103.412 29.8687 104.261 29.878C105.104 29.8873 105.832 29.906 106.442 29.934C107.048 29.9619 107.649 30.0132 108.237 30.0924L107.868 33.5976C107.715 33.5417 107.053 33.5091 105.873 33.4997C104.694 33.4904 103.128 33.4858 101.17 33.4858C100.522 33.4858 100.098 33.579 99.8885 33.7701C99.6788 33.9612 99.5763 34.3015 99.5763 34.7955C99.5763 35.518 99.6788 36.0028 99.8885 36.2498C100.098 36.4969 100.527 36.618 101.17 36.618H107.896L107.98 39.6664C107.621 39.6851 107.197 39.7037 106.712 39.7224C106.228 39.741 105.566 39.7503 104.731 39.7503H101.371C100.914 39.7503 100.588 39.8063 100.387 39.9228C100.187 40.0393 100.061 40.2537 100 40.58L99.1148 44.3695H93.8151L94.9244 39.8948C95.0549 39.4753 95.2833 39.163 95.6096 38.9533C95.9312 38.7435 96.2855 38.6037 96.663 38.5245C97.0406 38.4499 97.3762 38.4033 97.6605 38.38V38.2355C96.8448 38.0817 96.2109 37.8113 95.7634 37.4244C95.316 37.0376 94.999 36.5761 94.8079 36.0447C94.6168 35.5134 94.5236 34.9727 94.5236 34.4226C94.5236 33.5277 94.6168 32.7912 94.8079 32.1993C94.999 31.612 95.3346 31.1459 95.8194 30.8009C96.3041 30.456 96.9707 30.2183 97.8143 30.0738C98.658 29.9293 99.7394 29.8594 101.049 29.8594L101.054 29.864ZM108.232 30.0924V44.3695H103.189V30.0924H108.232Z" fill="white"/>
<path d="M101.869 2.98782C105.948 5.65866 109.369 5.74256 113.424 2.98315L113.699 3.26748C111.695 6.41843 107.412 7.55575 104.172 5.59806C103.137 5.01076 102.238 4.237 101.581 3.26282L101.869 2.99248V2.98782Z" fill="white"/>
<path d="M111.42 1.38436C111.42 2.14879 111.075 1.10935 110.311 1.10935C109.546 1.10935 108.651 2.14879 108.651 1.38436C108.651 0.619933 109.271 0 110.036 0C110.8 0 111.42 0.619933 111.42 1.38436Z" fill="white"/>
<path d="M103.906 1.38436C103.906 2.14879 104.251 1.10935 105.016 1.10935C105.78 1.10935 106.675 2.14879 106.675 1.38436C106.675 0.619933 106.055 0 105.291 0C104.526 0 103.906 0.619933 103.906 1.38436Z" fill="white"/>
</svg>
