<svg width="115" height="64" viewBox="0 0 115 64" fill="none" xmlns="http://www.w3.org/2000/svg">
<path d="M76.6509 2.33008C73.5245 2.33008 69.1061 2.58964 66.8468 4.84894C65.8676 5.82816 65.3839 7.42088 65.5078 9.22006C65.5255 9.45601 65.6848 9.66248 65.9089 9.73916C66.1331 9.81585 66.3867 9.73916 66.5401 9.56219C67.7966 8.08746 69.3539 6.90177 71.1826 6.04642C71.3359 5.96974 71.5188 5.96384 71.6899 6.02283C71.8374 6.07592 71.9494 6.1762 72.0084 6.30598C72.1323 6.57143 72.091 6.91357 71.6781 7.10823C71.6545 7.12003 71.6309 7.13773 71.6073 7.14363C71.6014 7.14363 71.5896 7.14363 71.5837 7.14363C67.0828 9.25545 64.8766 12.9482 63.8679 16.7412C63.1364 11.9926 61.5909 9.19646 60.1279 7.47987C59.072 6.11131 58.0338 5.38574 57.4321 4.97281C57.32 4.89613 56.9838 4.66607 56.8422 4.52449C56.6122 4.29443 56.6122 3.9228 56.8422 3.69274C57.0723 3.46268 57.4439 3.46268 57.6976 3.71634C57.7625 3.76943 57.8568 3.84022 57.9866 3.9287L58.0928 3.99949C58.9423 4.58348 60.5232 5.66299 61.9271 7.98718C62.051 8.19364 62.2929 8.30572 62.5288 8.26443C62.7707 8.22313 62.9535 8.04027 63.0007 7.79841C63.3075 6.23519 63.1718 3.911 61.7737 2.51885C59.5145 0.265453 55.0961 0 51.9756 0C51.6512 0 51.3916 0.265453 51.3916 0.583996C51.3916 3.71044 51.6512 8.12875 53.9105 10.388C54.8543 11.3319 56.3054 11.7507 57.7448 11.7507C58.9187 11.7507 60.0749 11.4558 60.9597 10.9484C62.1631 13.4437 63.1246 18.5994 63.1246 24.3096C63.1246 24.634 63.3901 24.8936 63.7086 24.8936C64.0271 24.8936 64.2926 24.6281 64.2926 24.3096C64.2926 21.1241 64.8353 15.88 66.8645 12.7358C67.6786 13.5322 69.0766 14.0336 70.6281 14.0808C70.7048 14.0808 70.7814 14.0808 70.8581 14.0808C72.4331 14.0808 73.8253 13.5853 74.7042 12.7063C76.9635 10.447 77.2231 6.02873 77.2231 2.90228C77.2231 2.57784 76.9635 2.31829 76.6391 2.31829L76.6509 2.33008Z" fill="white"/>
<path d="M5.23237 18.5169L7.69813 27.9788C7.75122 28.2148 7.91639 28.3327 8.18774 28.3327H9.22006L10.6004 31.9665H6.28828C5.49192 31.9665 4.89613 31.76 4.5009 31.3589C4.10567 30.9519 3.79302 30.4033 3.58066 29.719L0 18.5228H5.23237V18.5169ZM16.6173 18.5169L12.3347 32.2614C11.9926 33.3645 11.6209 34.2966 11.2257 35.0516C10.8305 35.8126 10.3291 36.3907 9.73326 36.7977C9.13747 37.2048 8.35881 37.4525 7.40318 37.541C6.91357 37.5941 6.34727 37.6059 5.69249 37.5705C5.0436 37.5351 4.40062 37.4761 3.76943 37.3935C3.13824 37.3109 2.60144 37.2342 2.17081 37.1635L2.71352 33.6654C3.47448 33.7008 4.11157 33.7244 4.63657 33.7303C5.16158 33.7421 5.5922 33.7067 5.92254 33.6359C6.25878 33.5651 6.52424 33.4353 6.7248 33.2584C6.92537 33.0755 7.08464 32.8159 7.21441 32.4738L7.81021 30.2794L8.59477 28.433L11.4145 18.511H16.6173V18.5169Z" fill="white"/>
<path d="M21.2303 23.7492L21.7199 26.0262L22.2095 26.4332V35.2993L22.0739 35.6237C22.1269 36.1841 22.1682 36.7858 22.1977 37.4288C22.2272 38.0718 22.2272 38.6912 22.2095 39.287V42.2424H17.3016V23.7551H21.2303V23.7492ZM26.734 23.4188C28.4683 23.4188 29.7012 24.0441 30.4327 25.2888C31.1641 26.5335 31.5299 28.3149 31.5299 30.6273C31.5299 32.4501 31.3411 33.8659 30.9577 34.8687C30.5742 35.8715 30.0138 36.5794 29.2647 36.9805C28.5155 37.3875 27.5776 37.5881 26.4568 37.5881C25.4599 37.5881 24.5219 37.4406 23.6371 37.1398C22.7522 36.8389 22.009 36.3493 21.4132 35.665L21.7376 33.6299C22.2095 33.7774 22.6461 33.9131 23.0531 34.0487C23.4601 34.1844 23.9615 34.2493 24.5573 34.2493C25.0292 34.2493 25.395 34.1667 25.6663 33.9897C25.9377 33.8187 26.1382 33.4765 26.2621 32.9574C26.386 32.4442 26.4509 31.6714 26.4509 30.6391C26.4509 29.6068 26.3919 28.8341 26.2739 28.309C26.1559 27.784 25.9672 27.4419 25.7017 27.2767C25.4422 27.1116 25.0941 27.0349 24.6576 27.0349C24.1326 27.0349 23.6843 27.1116 23.3126 27.2649C22.941 27.4183 22.5399 27.6307 22.1033 27.902L21.4545 25.8964C21.7435 25.4245 22.1564 24.9997 22.6873 24.6222C23.2182 24.2447 23.8376 23.9438 24.5455 23.7256C25.2475 23.5073 25.9731 23.4011 26.7163 23.4011L26.734 23.4188Z" fill="white"/>
<path d="M37.5763 23.5544C38.821 23.5544 40.1128 23.5721 41.4401 23.6075C42.7674 23.6429 43.9589 23.7609 45.0031 23.9615L44.7612 27.4065H39.8002C39.4227 27.4065 39.1513 27.4772 38.9861 27.6247C38.821 27.7722 38.7443 28.0317 38.7443 28.4093V37.2223H33.8658V26.9758C33.8658 25.8019 34.1667 24.9407 34.7743 24.3862C35.3819 23.8376 36.3139 23.5603 37.5822 23.5603L37.5763 23.5544Z" fill="white"/>
<path d="M50.5363 23.7493L52.5714 31.7718C52.6422 32.1494 52.713 32.5387 52.772 32.9398C52.8369 33.3351 52.8959 33.7244 52.949 34.1078H53.7335L52.188 37.2284H51.079C50.7015 37.2284 50.3711 37.1222 50.088 36.9039C49.8048 36.6857 49.6161 36.4084 49.504 36.0663L45.3039 23.7552H50.5363V23.7493ZM61.0541 23.7493L56.5237 37.0868C56.1993 38.1899 55.7982 39.0806 55.3321 39.7708C54.8602 40.4551 54.3352 41.0037 53.7453 41.4107C53.1554 41.8177 52.5006 42.1481 51.781 42.4017C50.9846 42.6908 50.1116 42.8383 49.1618 42.8501C48.2121 42.8619 47.2801 42.7734 46.3539 42.5905L46.7315 39.4464C47.5986 39.4641 48.3419 39.4287 48.9672 39.3402C49.5925 39.2517 50.1175 39.0865 50.554 38.8506C50.8784 38.65 51.1793 38.3728 51.4506 38.0129C51.722 37.6531 51.9461 37.2638 52.129 36.8449L52.9136 35.0281C53.0964 34.5738 53.2616 34.037 53.415 33.3999C53.5684 32.7688 53.6922 32.2261 53.7807 31.7718L55.8159 23.7493H61.0482H61.0541Z" fill="white"/>
<path d="M66.4221 23.7493L68.4573 31.7718C68.5281 32.1494 68.5988 32.5387 68.6578 32.9398C68.7227 33.3351 68.7817 33.7244 68.8348 34.1078H69.6194L68.0738 37.2284H66.9648C66.5873 37.2284 66.257 37.1222 65.9738 36.9039C65.6907 36.6857 65.5019 36.4084 65.3898 36.0663L61.1898 23.7552H66.4221V23.7493ZM76.94 23.7493L72.4096 37.0868C72.0851 38.1899 71.684 39.0806 71.218 39.7708C70.7461 40.4551 70.221 41.0037 69.6312 41.4107C69.0413 41.8177 68.3865 42.1481 67.6668 42.4017C66.8704 42.6908 65.9974 42.8383 65.0477 42.8501C64.0979 42.8619 63.1659 42.7734 62.2398 42.5905L62.6173 39.4464C63.4844 39.4641 64.2277 39.4287 64.853 39.3402C65.4783 39.2517 66.0033 39.0865 66.4398 38.8506C66.7643 38.65 67.0651 38.3728 67.3365 38.0129C67.6078 37.6531 67.832 37.2638 68.0148 36.8449L68.7994 35.0281C68.9823 34.5738 69.1474 34.037 69.3008 33.3999C69.4542 32.7688 69.5781 32.2261 69.6665 31.7718L71.7017 23.7493H76.934H76.94Z" fill="white"/>
<path d="M90.7671 23.7491V26.9994H85.0215C84.6263 26.9994 84.3254 27.0879 84.1249 27.2708C83.9243 27.4536 83.8004 27.7309 83.7473 28.1084C83.6765 28.8104 83.594 29.5242 83.5055 30.2379C83.417 30.9517 83.3226 31.6183 83.2223 32.2436C83.122 32.8689 83.0277 33.3939 82.9392 33.8304C82.7563 34.9335 82.3611 35.7712 81.7476 36.3375C81.1341 36.9097 80.3908 37.2577 79.5237 37.3934C78.6565 37.529 77.7363 37.5172 76.7571 37.3521L76.2675 33.7478C76.645 33.677 76.993 33.6121 77.2998 33.5591C77.6065 33.506 77.8661 33.4057 78.0725 33.2582C78.279 33.1166 78.4265 32.863 78.5209 32.4972C78.6093 32.2436 78.686 31.9486 78.7509 31.6006C78.8158 31.2585 78.8748 30.8573 78.9397 30.3913C79.0046 29.9312 79.0577 29.4357 79.1049 28.8989C79.152 28.368 79.1992 27.784 79.2523 27.1528C79.3585 26.032 79.7065 25.1825 80.2964 24.6045C80.8863 24.0264 81.7535 23.7373 82.9097 23.7373H90.773L90.7671 23.7491ZM91.121 23.7491V37.2223H86.2131V23.7491H91.121Z" fill="white"/>
<path d="M98.1703 23.7491C98.5301 24.8699 98.831 25.7548 99.067 26.4037C99.3029 27.0526 99.5094 27.5481 99.6922 27.8784C99.8751 28.2146 100.076 28.4329 100.3 28.5273C100.524 28.6276 100.801 28.6748 101.126 28.6748L101.073 31.7953C100.748 31.7953 100.483 31.8307 100.27 31.9015C100.064 31.9723 99.8633 32.1728 99.6745 32.4973C99.4858 32.8217 99.2557 33.3585 98.9844 34.0959C98.713 34.8392 98.3532 35.8774 97.899 37.2164H92.9084C93.286 35.9718 93.6104 34.9394 93.8818 34.1254C94.1531 33.3113 94.4127 32.6684 94.6545 32.1846C94.8964 31.7068 95.1677 31.347 95.4568 31.0992C95.7458 30.8574 96.1057 30.6745 96.5422 30.5565C96.9787 30.4385 97.5155 30.3324 98.1703 30.2439V30.1082C97.5391 30.0197 97.02 29.9194 96.613 29.8074C96.206 29.7012 95.8697 29.5301 95.6102 29.2942C95.3506 29.0582 95.1147 28.7161 94.9023 28.2618C94.6958 27.8076 94.4717 27.2236 94.2357 26.4981C93.9998 25.7784 93.7048 24.8522 93.3391 23.7314H98.1644L98.1703 23.7491ZM102.724 28.6807V31.8012H100.418V28.6807H102.724ZM106.14 23.7491V26.9759C106.14 27.5009 106.081 28.0436 105.963 28.604C105.845 29.1644 105.668 29.6776 105.432 30.1495C105.615 30.586 105.774 31.0579 105.922 31.5711C106.063 32.0844 106.14 32.5445 106.14 32.9397V37.2223H101.804V32.9397C101.804 32.5445 101.875 32.0844 102.022 31.5711C102.164 31.0579 102.323 30.5801 102.482 30.1495C102.264 29.6776 102.105 29.1644 101.993 28.604C101.887 28.0436 101.828 27.5009 101.828 26.9759V23.7491H106.14ZM107.497 28.6807V31.8012H105.22V28.6807H107.497ZM114.569 23.7491C114.21 24.8699 113.909 25.7902 113.673 26.5157C113.437 27.2413 113.219 27.8253 113.006 28.2795C112.8 28.7338 112.564 29.0759 112.304 29.3119C112.045 29.5478 111.714 29.7189 111.313 29.8251C110.918 29.9312 110.399 30.0315 109.768 30.1259V30.2616C110.417 30.3501 110.953 30.4562 111.378 30.5742C111.803 30.6922 112.163 30.8751 112.463 31.1169C112.764 31.3588 113.03 31.7245 113.266 32.2023C113.502 32.6802 113.755 33.329 114.027 34.1431C114.298 34.9571 114.622 35.9895 115 37.2341H110.039C109.585 35.8951 109.225 34.8569 108.954 34.1136C108.682 33.3703 108.452 32.8394 108.263 32.515C108.075 32.1905 107.868 31.99 107.656 31.9192C107.438 31.8484 107.16 31.813 106.818 31.813L106.765 28.6925C107.107 28.6925 107.39 28.6453 107.62 28.545C107.845 28.4447 108.057 28.2264 108.246 27.8961C108.434 27.5599 108.641 27.0703 108.871 26.4214C109.095 25.7725 109.384 24.8876 109.726 23.7668H114.581L114.569 23.7491Z" fill="white"/>
<path d="M14.1103 46.3186V59.7918H9.23187V46.3186H14.1103ZM18.505 51.0909V54.3176H13.9215V51.0909H18.505ZM23.0885 46.3186V59.7918H18.2632V46.3186H23.0885Z" fill="white"/>
<path d="M37.128 51.5275L37.0985 54.0227H31.3234C30.9282 54.0404 30.6273 54.1466 30.4268 54.3354C30.2262 54.5241 30.1259 54.7837 30.1259 55.1081V55.6213C30.1259 55.9635 30.238 56.2289 30.4622 56.4236C30.6863 56.6124 31.0285 56.7067 31.4768 56.7067C31.9251 56.7067 32.4088 56.6065 32.9161 56.4059C33.4234 56.2053 33.9189 55.934 34.4086 55.5918C34.8982 55.2497 35.3229 54.8781 35.6827 54.4828V56.2171C35.5353 56.5062 35.317 56.866 35.0162 57.3025C34.7153 57.7391 34.3319 58.1756 33.8659 58.618C33.3939 59.0604 32.8276 59.4262 32.1552 59.7152C31.4886 60.0043 30.7099 60.1517 29.8251 60.1517C29.011 60.1517 28.2619 60.0043 27.5776 59.7152C26.8933 59.4262 26.3447 59.0014 25.9377 58.441C25.5306 57.8806 25.3301 57.1787 25.3301 56.3292V54.9725C25.3301 53.887 25.7135 53.0435 26.4804 52.4359C27.2472 51.8283 28.2913 51.5275 29.6127 51.5275H37.1221H37.128ZM33.4706 45.9412C34.6799 45.9412 35.7004 46.1063 36.5322 46.4308C37.3639 46.7552 37.9951 47.2979 38.4316 48.0589C38.8682 48.8199 39.0805 49.864 39.0805 51.203V59.7978H35.1518L34.4734 56.8955L34.149 56.4059V51.1735C34.1313 50.6131 33.9897 50.212 33.7302 49.9642C33.4706 49.7224 32.9928 49.5985 32.3085 49.5985C31.6243 49.5985 30.7335 49.6103 29.7071 49.6398C28.6748 49.6693 27.6012 49.7165 26.4804 49.7873L26.0439 46.6136C26.7104 46.4898 27.5009 46.3718 28.4034 46.2774C29.306 46.1771 30.2085 46.0945 31.0992 46.0355C31.9959 45.9707 32.7863 45.9412 33.4706 45.9412Z" fill="white"/>
<path d="M52.9608 51.5275L52.9313 54.0227H47.1562C46.761 54.0404 46.4601 54.1466 46.2596 54.3354C46.059 54.5241 45.9587 54.7837 45.9587 55.1081V55.6213C45.9587 55.9635 46.0708 56.2289 46.295 56.4236C46.5191 56.6124 46.8613 56.7067 47.3096 56.7067C47.7579 56.7067 48.2416 56.6065 48.7489 56.4059C49.2562 56.2053 49.7517 55.934 50.2414 55.5918C50.731 55.2497 51.1557 54.8781 51.5155 54.4828V56.2171C51.3681 56.5062 51.1498 56.866 50.8489 57.3025C50.5481 57.7391 50.1647 58.1756 49.6987 58.618C49.2267 59.0604 48.6604 59.4262 47.988 59.7152C47.3214 60.0043 46.5427 60.1517 45.6579 60.1517C44.8438 60.1517 44.0947 60.0043 43.4104 59.7152C42.7261 59.4262 42.1775 59.0014 41.7705 58.441C41.3634 57.8806 41.1629 57.1787 41.1629 56.3292V54.9725C41.1629 53.887 41.5463 53.0435 42.3132 52.4359C43.08 51.8283 44.1241 51.5275 45.4455 51.5275H52.9549H52.9608ZM49.3034 45.9412C50.5127 45.9412 51.5332 46.1063 52.365 46.4308C53.1967 46.7552 53.8279 47.2979 54.2644 48.0589C54.701 48.8199 54.9133 49.864 54.9133 51.203V59.7978H50.9846L50.3062 56.8955L49.9818 56.4059V51.1735C49.9641 50.6131 49.8225 50.212 49.563 49.9642C49.3034 49.7224 48.8256 49.5985 48.1413 49.5985C47.4571 49.5985 46.5663 49.6103 45.5399 49.6398C44.5076 49.6693 43.434 49.7165 42.3132 49.7873L41.8766 46.6136C42.5432 46.4898 43.3337 46.3718 44.2362 46.2774C45.1388 46.1771 46.0413 46.0945 46.932 46.0355C47.8287 45.9707 48.6191 45.9412 49.3034 45.9412Z" fill="white"/>
<path d="M73.4596 56.512V59.7918H56.5946V56.512H73.4596ZM60.1988 59.6561L59.8449 63.5317H56.5887V59.6561H60.1929H60.1988ZM70.9113 46.3186V49.4097H65.3781C64.6761 49.4097 64.2691 49.7813 64.157 50.5187C63.921 52.017 63.6497 53.3148 63.3429 54.412C63.0362 55.5033 62.6587 56.4766 62.2045 57.326C61.7502 58.1755 61.1898 58.9954 60.5233 59.7918H56.7833C57.4145 58.6356 57.9336 57.4853 58.3288 56.3468C58.7241 55.2083 59.0485 54.0816 59.2904 52.9608C59.5322 51.84 59.7387 50.7133 59.898 49.5748C60.0395 48.5071 60.423 47.699 61.0365 47.1504C61.65 46.6018 62.5466 46.3245 63.7205 46.3245H70.9054L70.9113 46.3186ZM71.2357 46.3186V59.7918H66.5992V46.3186H71.2357ZM73.4596 59.6561V63.5317H70.1798L69.8554 59.6561H73.4596Z" fill="white"/>
<path d="M73.7546 46.3186H80.8038V49.8698H73.7546V46.3186ZM82.9451 46.3186V59.7918H78.2024V46.3186H82.9451ZM84.355 50.7664C86.0362 50.7664 87.3576 50.9021 88.325 51.1734C89.2924 51.4448 89.9767 51.9108 90.3719 52.5715C90.7671 53.2322 90.9677 54.1583 90.9677 55.3499C90.9677 56.5415 90.7672 57.4735 90.3601 58.1401C89.9531 58.8067 89.3278 59.2786 88.4784 59.5499C87.6289 59.8213 86.5435 59.957 85.2221 59.957C84.1898 59.957 83.2814 59.957 82.4968 59.9452C81.7123 59.9334 80.9867 59.9157 80.326 59.8921C79.6653 59.8626 79.0046 59.8331 78.3322 59.7977L78.6566 56.6536C79.0164 56.6713 79.7125 56.689 80.7448 56.7067C81.7772 56.7243 82.9746 56.7361 84.3491 56.7361C84.8033 56.7361 85.1455 56.7008 85.3814 56.63C85.6174 56.5592 85.7766 56.4058 85.871 56.1699C85.9595 55.9339 86.0067 55.5976 86.0067 55.167C86.0067 54.5358 85.9064 54.117 85.7058 53.9047C85.5053 53.6982 85.057 53.592 84.3491 53.592H78.6271V50.7723H84.3491L84.355 50.7664Z" fill="white"/>
<path d="M98.943 45.9942C100.17 45.9942 101.191 45.9942 101.993 46.006C102.795 46.0178 103.485 46.0355 104.069 46.0591C104.647 46.0886 105.22 46.1358 105.78 46.2065L105.426 49.5395C105.279 49.4864 104.647 49.4569 103.527 49.4451C102.406 49.4392 100.913 49.4333 99.0551 49.4333C98.4416 49.4333 98.0346 49.5218 97.8341 49.7046C97.6335 49.8875 97.5332 50.2119 97.5332 50.6779C97.5332 51.3622 97.6335 51.8282 97.8341 52.0583C98.0346 52.2943 98.4416 52.4122 99.0551 52.4122H105.455L105.538 55.3145C105.196 55.3322 104.795 55.3499 104.329 55.3676C103.869 55.3853 103.237 55.3971 102.447 55.3971H99.2498C98.8133 55.3971 98.5065 55.4502 98.3119 55.5623C98.1172 55.6744 97.9992 55.8808 97.9461 56.1876L97.1085 59.7918H92.0649L93.1208 55.5328C93.2447 55.1376 93.4629 54.8367 93.7697 54.6361C94.0764 54.4356 94.4127 54.2999 94.7725 54.2291C95.1323 54.1583 95.4509 54.1111 95.7222 54.0934V53.9578C94.9436 53.8162 94.3419 53.5566 93.9171 53.185C93.4924 52.8134 93.1916 52.3768 93.0087 51.8695C92.8258 51.3622 92.7374 50.849 92.7374 50.324C92.7374 49.4746 92.8258 48.7726 93.0087 48.2122C93.1916 47.6518 93.5101 47.2094 93.9702 46.8849C94.4304 46.5605 95.0615 46.3304 95.8697 46.1947C96.672 46.0591 97.6984 45.9883 98.949 45.9883L98.943 45.9942ZM105.774 46.2124V59.7977H100.978V46.2124H105.774Z" fill="white"/>
</svg>
