<svg width="116" height="50" viewBox="0 0 116 50" fill="none" xmlns="http://www.w3.org/2000/svg">
<path d="M11.1483 6.94946C11.5495 6.94946 11.9043 7.06577 12.2067 7.29258C12.5091 7.51938 12.7184 7.83342 12.8231 8.23468L17.7721 25.0123H12.7475L9.57808 12.5556C9.5083 12.259 9.45014 11.9391 9.39199 11.6018C9.33383 11.2645 9.28731 10.9447 9.23497 10.6481H8.52548C8.49059 10.9447 8.44407 11.2645 8.38009 11.6018C8.31612 11.945 8.25215 12.259 8.18237 12.5556L5.01294 25.0123H0L4.94897 8.23468C5.05364 7.83342 5.25719 7.51938 5.56541 7.29258C5.86781 7.06577 6.22255 6.94946 6.62382 6.94946H11.1541H11.1483ZM13.6373 17.1847V20.7205H4.1348V17.1847H13.6373Z" fill="white"/>
<path d="M23.7911 11.9972V25.0064H19.0515V11.9972H23.7911ZM27.5595 16.7892V19.9295H23.5818V16.7892H27.5595ZM32.2992 11.6309C33.5379 11.6309 34.5905 11.7297 35.4511 11.9333C36.3176 12.1368 37.0097 12.4857 37.5447 12.9917C38.0739 13.4976 38.4636 14.2013 38.7078 15.0969C38.9521 15.9983 39.0742 17.1439 39.0742 18.5396C39.0742 20.3366 38.8532 21.7265 38.4054 22.7035C37.9576 23.6805 37.2423 24.3551 36.2595 24.7331C35.2709 25.1053 33.9508 25.2972 32.2933 25.2972C30.7232 25.2972 29.467 25.1111 28.5249 24.7331C27.5828 24.3551 26.9082 23.6805 26.5069 22.7035C26.1057 21.7265 25.9021 20.3366 25.9021 18.5396C25.9021 17.1439 26.0126 15.9983 26.2453 15.0969C26.4721 14.2013 26.8326 13.4976 27.3327 12.9917C27.8329 12.4857 28.49 12.131 29.31 11.9333C30.13 11.7355 31.1244 11.6309 32.2933 11.6309H32.2992ZM32.2177 15.219C31.6769 15.219 31.264 15.3004 30.9849 15.4691C30.7057 15.6377 30.5196 15.9518 30.4208 16.4112C30.3219 16.8764 30.2754 17.5568 30.2754 18.464C30.2754 19.3713 30.3219 20.0575 30.4208 20.5169C30.5138 20.9821 30.7057 21.2962 30.9849 21.459C31.264 21.6277 31.6711 21.7091 32.2177 21.7091C32.7644 21.7091 33.1715 21.6277 33.4506 21.459C33.7298 21.2962 33.9217 20.9763 34.0264 20.5169C34.131 20.0575 34.1834 19.3713 34.1834 18.464C34.1834 17.5568 34.131 16.8706 34.0264 16.4112C33.9217 15.9518 33.7298 15.6377 33.4506 15.4691C33.1715 15.3062 32.7586 15.219 32.2177 15.219Z" fill="white"/>
<path d="M44.8082 11.9972L46.7739 19.7434C46.8436 20.1098 46.9076 20.4878 46.9716 20.8716C47.0297 21.2555 47.0879 21.6335 47.1402 21.9998H47.9021L46.4075 25.0123H45.3316C44.9652 25.0123 44.6454 24.9076 44.3779 24.6982C44.1045 24.4889 43.9185 24.2155 43.8138 23.884L39.7546 12.003H44.8082V11.9972ZM54.962 11.9972L50.5888 24.8727C50.2748 25.9369 49.8909 26.8034 49.4373 27.4664C48.9837 28.1293 48.472 28.6586 47.9079 29.0482C47.338 29.4436 46.7099 29.7577 46.012 30.0019C45.2444 30.2811 44.4011 30.4265 43.4881 30.4323C42.5693 30.4381 41.6679 30.3567 40.7781 30.1822L41.1445 27.1465C41.9819 27.164 42.703 27.1291 43.302 27.0419C43.901 26.9546 44.4128 26.7976 44.8315 26.5708C45.1455 26.3789 45.4363 26.1056 45.698 25.7566C45.9597 25.4077 46.1749 25.0297 46.3551 24.6284L47.117 22.8722C47.2914 22.436 47.4543 21.9126 47.5996 21.302C47.745 20.6914 47.8672 20.168 47.9544 19.7318L49.92 11.9856H54.9737L54.962 11.9972Z" fill="white"/>
<path d="M68.3144 11.9972V15.1375H62.7664C62.3826 15.1375 62.0918 15.2248 61.8999 15.3992C61.708 15.5737 61.5859 15.8412 61.5335 16.2076C61.4637 16.888 61.3823 17.5742 61.2951 18.2604C61.2078 18.9525 61.1148 19.598 61.0218 20.197C60.9229 20.8018 60.8357 21.3078 60.7484 21.7265C60.574 22.7907 60.1901 23.599 59.597 24.1457C59.0038 24.6982 58.2885 25.0355 57.4511 25.1692C56.6136 25.2972 55.7239 25.2855 54.7818 25.1285L54.3107 21.6451C54.6771 21.5753 55.0086 21.5171 55.3051 21.459C55.6017 21.4066 55.8518 21.3136 56.0495 21.1682C56.2472 21.0286 56.3926 20.7844 56.4799 20.4354C56.5671 20.1912 56.6427 19.9062 56.7009 19.5689C56.759 19.2374 56.823 18.8478 56.887 18.4058C56.9451 17.958 56.9974 17.4812 57.044 16.9636C57.0847 16.4518 57.137 15.8877 57.1894 15.2771C57.294 14.1954 57.6313 13.3754 58.1954 12.8172C58.7595 12.2589 59.6028 11.9797 60.7193 11.9797H68.3085L68.3144 11.9972ZM68.6516 11.9972V25.0064H63.912V11.9972H68.6516Z" fill="white"/>
<path d="M74.9614 11.8169C76.1652 11.8169 77.4097 11.8343 78.6891 11.8692C79.9743 11.9041 81.12 12.0146 82.1319 12.2065L81.8934 15.533H77.1015C76.7351 15.533 76.4734 15.6028 76.3164 15.7423C76.1594 15.8819 76.078 16.1378 76.078 16.5042V25.0122H71.3674V15.1201C71.3674 13.9861 71.6582 13.1545 72.2456 12.6194C72.8271 12.0902 73.7343 11.8227 74.9556 11.8227L74.9614 11.8169Z" fill="white"/>
<path d="M99.2003 11.9973L93.0999 24.4017H88.5173L82.4168 11.9973H87.4705L90.0642 17.9931C90.2212 18.3594 90.3433 18.7607 90.4306 19.1969C90.5178 19.633 90.5934 20.0459 90.669 20.4297H90.9598C91.0644 20.0459 91.1575 19.6388 91.2331 19.1969C91.3087 18.7607 91.4308 18.3594 91.5878 17.9931L94.1292 11.9973H99.2061H99.2003ZM93.2278 21.5521V29.8508H88.4126V21.5521H93.2278Z" fill="white"/>
<path d="M114.117 11.9973V25.0065L109.878 25.0589V19.1678C109.878 18.784 109.895 18.4118 109.93 18.057C109.965 17.7023 110.011 17.301 110.064 16.8649H109.959C109.837 17.2312 109.674 17.6151 109.476 18.0163C109.273 18.4176 109.081 18.7607 108.889 19.0399L104.83 25.0065H100.643V11.9973H104.882V18.1501C104.882 18.4816 104.865 18.8072 104.83 19.1213C104.795 19.4353 104.748 19.7842 104.702 20.1681H104.806C104.929 19.8017 105.074 19.4644 105.254 19.162C105.429 18.8596 105.609 18.5572 105.807 18.2606L109.971 12.0031H114.135L114.117 11.9973Z" fill="white"/>
<path d="M15.2947 32.8049V45.8141H10.5842V32.8049H15.2947ZM19.5342 37.4166V40.5337H15.1086V37.4166H19.5342ZM23.9598 32.8049V45.8141H19.3016V32.8049H23.9598Z" fill="white"/>
<path d="M37.5156 37.8354L37.4924 40.243H31.9153C31.5315 40.2605 31.2407 40.3593 31.0488 40.5454C30.8569 40.7257 30.7639 40.9758 30.7639 41.2898V41.79C30.7639 42.1214 30.8744 42.3773 31.0895 42.5634C31.3047 42.7495 31.6362 42.8367 32.0723 42.8367C32.5085 42.8367 32.9679 42.7437 33.4622 42.5518C33.9507 42.3599 34.4334 42.0982 34.9045 41.7667C35.3755 41.4352 35.7826 41.0805 36.1374 40.6908V42.3657C35.9978 42.6448 35.7826 42.9938 35.4977 43.4125C35.2069 43.8312 34.8405 44.2557 34.3869 44.6802C33.9333 45.1106 33.3808 45.4595 32.7353 45.7387C32.0898 46.0178 31.3396 46.1574 30.4847 46.1574C29.6996 46.1574 28.9727 46.0178 28.3097 45.7387C27.6468 45.4595 27.1176 45.0466 26.7279 44.5058C26.3325 43.9649 26.1406 43.2845 26.1406 42.4645V41.1561C26.1406 40.1093 26.5128 39.2951 27.2513 38.7078C27.9957 38.1204 29.0018 37.8296 30.2754 37.8296H37.5273L37.5156 37.8354ZM33.9798 32.4387C35.1487 32.4387 36.1374 32.5957 36.9399 32.9097C37.7424 33.2238 38.3531 33.7472 38.7718 34.4799C39.1905 35.2127 39.3998 36.2245 39.3998 37.5156V45.8143H35.6023L34.9452 43.0112L34.6312 42.5401V37.4865C34.6137 36.9457 34.4799 36.556 34.2241 36.3234C33.9682 36.085 33.5146 35.9687 32.8516 35.9687C32.1887 35.9687 31.3338 35.9803 30.3393 36.0094C29.3449 36.0385 28.3039 36.085 27.2222 36.1548L26.8035 33.09C27.449 32.9679 28.2051 32.8574 29.0832 32.7643C29.9555 32.6713 30.822 32.5899 31.6885 32.5259C32.555 32.4678 33.3169 32.4329 33.9798 32.4329V32.4387Z" fill="white"/>
<path d="M52.7986 37.8354L52.7754 40.243H47.1983C46.8145 40.2605 46.5237 40.3593 46.3318 40.5454C46.1399 40.7257 46.0469 40.9758 46.0469 41.2898V41.79C46.0469 42.1214 46.1574 42.3773 46.3725 42.5634C46.5877 42.7495 46.9192 42.8367 47.3554 42.8367C47.7915 42.8367 48.2509 42.7437 48.7452 42.5518C49.2337 42.3599 49.7164 42.0982 50.1875 41.7667C50.6585 41.4352 51.0656 41.0805 51.4204 40.6908V42.3657C51.2808 42.6448 51.0656 42.9938 50.7807 43.4125C50.4899 43.8312 50.1235 44.2557 49.6699 44.6802C49.2163 45.1106 48.6638 45.4595 48.0183 45.7387C47.3728 46.0178 46.6226 46.1574 45.7677 46.1574C44.9826 46.1574 44.2557 46.0178 43.5927 45.7387C42.9298 45.4595 42.4006 45.0466 42.0109 44.5058C41.6155 43.9649 41.4236 43.2845 41.4236 42.4645V41.1561C41.4236 40.1093 41.7958 39.2951 42.5343 38.7078C43.2787 38.1204 44.2848 37.8296 45.5584 37.8296H52.8103L52.7986 37.8354ZM49.2686 32.4387C50.4375 32.4387 51.4262 32.5957 52.2287 32.9097C53.0313 33.2238 53.6419 33.7472 54.0606 34.4799C54.4793 35.2127 54.6887 36.2245 54.6887 37.5156V45.8143H50.8912L50.234 43.0112L49.92 42.5401V37.4865C49.9025 36.9457 49.7688 36.556 49.5129 36.3234C49.257 36.085 48.8034 35.9687 48.1404 35.9687C47.4775 35.9687 46.6226 35.9803 45.6282 36.0094C44.6337 36.0385 43.5927 36.085 42.5111 36.1548L42.0923 33.09C42.7379 32.9679 43.4939 32.8574 44.372 32.7643C45.2443 32.6713 46.1108 32.5899 46.9773 32.5259C47.8439 32.4678 48.6057 32.4329 49.2686 32.4329V32.4387Z" fill="white"/>
<path d="M72.5888 42.6505V45.82H56.3113V42.6505H72.5888ZM59.7889 45.6862L59.4458 49.4314H56.3055V45.6862H59.7889ZM70.1288 32.8049V35.7883H64.7902C64.1098 35.7883 63.7144 36.1488 63.6097 36.8641C63.3829 38.3122 63.1212 39.5625 62.8246 40.6209C62.528 41.6793 62.1616 42.6156 61.7255 43.4356C61.2893 44.2556 60.7485 45.0523 60.103 45.82H56.4915C57.1022 44.7034 57.6023 43.5926 57.9861 42.4935C58.3699 41.3944 58.6782 40.3069 58.9166 39.2194C59.155 38.1377 59.3469 37.0444 59.504 35.9453C59.6435 34.9159 60.0099 34.1367 60.6031 33.6017C61.1963 33.0724 62.057 32.8049 63.1968 32.8049H70.1346H70.1288ZM70.4429 32.8049V45.8141H65.9649V32.8049H70.4429ZM72.5888 45.6862V49.4314H69.4193L69.1053 45.6862H72.5888Z" fill="white"/>
<path d="M72.8737 32.8049H79.6778V36.2361H72.8737V32.8049ZM81.7481 32.8049V45.8141H77.1655V32.8049H81.7481ZM83.1089 37.1026C84.7314 37.1026 86.0108 37.2305 86.9413 37.4922C87.8718 37.7539 88.5348 38.2017 88.9186 38.8414C89.3024 39.4811 89.4943 40.3709 89.4943 41.5223C89.4943 42.6738 89.2966 43.5752 88.9069 44.2207C88.5115 44.8662 87.9067 45.3198 87.0867 45.5815C86.2667 45.8432 85.2199 45.977 83.9463 45.977C82.9519 45.977 82.0738 45.977 81.3178 45.9653C80.5559 45.9537 79.8581 45.9421 79.2242 45.913C78.5845 45.8839 77.9448 45.8549 77.2993 45.82L77.6133 42.7843C77.9622 42.8017 78.6368 42.8192 79.6313 42.8366C80.6257 42.8541 81.7888 42.8599 83.1147 42.8599C83.5509 42.8599 83.8824 42.825 84.1092 42.7552C84.336 42.6854 84.493 42.54 84.5802 42.3074C84.6675 42.0806 84.7082 41.7549 84.7082 41.3362C84.7082 40.7256 84.6093 40.3185 84.4232 40.1208C84.2313 39.9231 83.7951 39.8184 83.1147 39.8184H77.59V37.0968H83.1147L83.1089 37.1026Z" fill="white"/>
<path d="M97.194 32.491C98.3803 32.491 99.3631 32.491 100.137 32.5026C100.91 32.5142 101.579 32.5259 102.137 32.5549C102.695 32.584 103.248 32.6305 103.789 32.7003L103.446 35.9221C103.306 35.8698 102.695 35.8407 101.614 35.8291C100.532 35.8232 99.0898 35.8174 97.2928 35.8174C96.6997 35.8174 96.3042 35.9047 96.1123 36.0791C95.9204 36.2536 95.8273 36.5676 95.8273 37.0212C95.8273 37.6842 95.9204 38.132 96.1123 38.3588C96.3042 38.5856 96.6938 38.7019 97.2928 38.7019H103.469L103.544 41.5049C103.213 41.5224 102.823 41.5398 102.381 41.5573C101.934 41.5747 101.329 41.5864 100.561 41.5864H97.4731C97.0544 41.5864 96.752 41.6387 96.5717 41.7434C96.3914 41.8481 96.2693 42.0516 96.217 42.3482L95.4028 45.8317H90.5353L91.5588 41.7201C91.6809 41.3363 91.8903 41.0513 92.1869 40.8536C92.4834 40.6617 92.8033 40.528 93.158 40.4582C93.507 40.3884 93.8152 40.3477 94.0769 40.3302V40.1965C93.3267 40.0569 92.7451 39.8068 92.3381 39.4521C91.9252 39.0973 91.6344 38.6728 91.4599 38.1843C91.2855 37.6958 91.1982 37.1957 91.1982 36.6897C91.1982 35.8698 91.2855 35.1893 91.4599 34.6485C91.6344 34.1077 91.9426 33.6773 92.3904 33.3633C92.8382 33.0493 93.443 32.8283 94.2223 32.6945C94.9957 32.5666 95.9902 32.4968 97.194 32.4968V32.491ZM103.789 32.7003V45.8142H99.1538V32.7003H103.789Z" fill="white"/>
<path d="M113.198 0.453607L107.086 6.56567L105.429 4.90826C104.818 4.29763 103.835 4.29763 103.236 4.90826C102.631 5.51307 102.631 6.49588 103.236 7.09487L105.993 9.85141C106.295 10.148 106.696 10.305 107.092 10.305C107.487 10.305 107.883 10.1538 108.191 9.85141L115.396 2.64022C116.001 2.03541 116.001 1.0526 115.396 0.453607C114.792 -0.151202 113.815 -0.151202 113.21 0.453607H113.198Z" fill="white"/>
</svg>
